<?xml version="1.0" encoding="utf-8"?>
<svg xmlns="http://www.w3.org/2000/svg" viewBox="0 0 175 44">
  <rect x="0.646" y="2.475" width="60" height="40" rx="10" fill="#FF0000"/>
  <polygon points="25.646 12.373 40.646 22.373 25.646 32.373" fill="white"/>
  <line x1="69.796" y1="22.475" x2="115.782" y2="22.475" stroke-width="2" style="fill: rgb(67, 25, 25); stroke: rgb(255, 255, 255);"/>
  <polygon points="115.208 17.475 125.208 22.475 115.208 27.475" style="fill: rgb(255, 255, 255);"/>
  <g id="Layer_1" transform="matrix(1, 0, 0, 1, 57.960461, -25.266886)">
    <path style="fill:#E2E5E7;" d="M 86.435 24.901 C 84.922 24.901 83.685 26.139 83.685 27.651 L 83.685 66.151 C 83.685 67.665 84.922 68.901 86.435 68.901 L 113.935 68.901 C 115.447 68.901 116.685 67.665 116.685 66.151 L 116.685 35.901 L 105.685 24.901 L 86.435 24.901 Z"/>
    <path style="fill:#B0B7BD;" d="M 108.435 35.901 L 116.685 35.901 L 105.685 24.901 L 105.685 33.151 C 105.685 34.664 106.922 35.901 108.435 35.901 Z"/>
    <polygon style="fill:#CAD1D8;" points="116.685 44.151 108.435 35.901 116.685 35.901"/>
    <path style="fill: rgb(147, 51, 234);" d="M 111.185 60.651 C 111.185 61.407 110.566 62.026 109.81 62.026 L 79.56 62.026 C 78.804 62.026 78.185 61.407 78.185 60.651 L 78.185 46.901 C 78.185 46.145 78.804 45.526 79.56 45.526 L 109.81 45.526 C 110.566 45.526 111.185 46.145 111.185 46.901 L 111.185 60.651 Z"/>
    <g transform="matrix(0.085938, 0, 0, 0.085938, 75.434921, 24.901148)">
      <path style="fill:#FFFFFF;" d="M117.184,327.84v47.344c0,5.632-4.592,8.832-9.216,8.832c-4.096,0-7.664-3.2-7.664-8.832v-72.032 c0-6.64,5.632-8.832,7.664-8.832c3.712,0,5.888,2.192,8.064,4.608l28.16,38l29.152-39.408c4.24-5.248,14.592-3.2,14.592,5.632 v72.032c0,5.632-3.6,8.832-7.68,8.832c-4.592,0-8.192-3.2-8.192-8.832V327.84l-21.232,26.88c-4.592,5.632-10.352,5.632-14.576,0 L117.184,327.84z"/>
      <path style="fill:#FFFFFF;" d="M210.288,303.152c0-4.224,3.328-8.832,8.704-8.832h29.552c16.64,0,31.616,11.136,31.616,32.496 c0,20.224-14.976,31.472-31.616,31.472h-21.36v16.896c0,5.632-3.584,8.832-8.192,8.832c-4.224,0-8.704-3.2-8.704-8.832V303.152z M227.168,310.448v31.856h21.36c8.576,0,15.36-7.552,15.36-15.488c0-8.96-6.784-16.368-15.36-16.368L227.168,310.448 L227.168,310.448z"/>
      <path style="fill:#FFFFFF;" d="M322.064,311.472h-21.872c-10.736,0-10.096-15.984,0-15.984h39.152c7.792,0,11.376,8.96,5.632,14.72 l-21.232,19.824c15.616-1.152,27.888,10.48,27.888,24.816c0,15.728-11.136,29.168-34.544,29.168 c-10.24,0-20.336-4.224-26.224-13.44c-6.144-9.072,7.024-17.776,13.936-8.832c3.328,4.352,8.704,6.528,14.448,6.528 c7.808,0,15.488-3.328,15.488-13.44c0-13.296-16.256-11.248-25.072-10.352c-10.752,2.048-13.936-9.6-7.664-14.448L322.064,311.472z "/>
    </g>
    <path style="fill:#CAD1D8;" d="M 109.81 62.026 L 83.685 62.026 L 83.685 63.401 L 109.81 63.401 C 110.566 63.401 111.185 62.782 111.185 62.026 L 111.185 60.651 C 111.185 61.407 110.566 62.026 109.81 62.026 Z"/>
  </g>
</svg>